<?xml version="1.0"?>
<svg xmlns="http://www.w3.org/2000/svg" id="Capa_1" enable-background="new 0 0 512 512" height="512px" viewBox="0 0 512 512" width="512px"><g><path d="m357.554 324.314h-67.082v-118.427c57.888-31.747 91.026-64.335 91.026-125.537 0-44.305-33.981-80.35-75.75-80.35-18.526 0-35.961 6.962-49.744 19.741-13.78-12.778-31.215-19.741-49.744-19.741-41.773 0-75.758 36.045-75.758 80.35 0 61.2 33.136 93.787 91.026 125.535v296.115c0 5.522 4.477 10 10 10h48.943c5.523 0 10-4.478 10-10v-18.721h67.082c5.523 0 10-4.478 10-10v-47.705c0-5.522-4.477-10-10-10h-17.943v-23.554h17.944c5.523 0 10-4.478 10-10v-47.705c0-5.523-4.477-10.001-10-10.001zm-207.052-243.964c0-33.277 25.013-60.35 55.758-60.35 14.976 0 29.034 6.347 39.588 17.875 2.604 2.841 6.304 4.471 10.154 4.47h.007c3.851-.001 7.552-1.633 10.148-4.472 10.555-11.525 24.615-17.873 39.59-17.873 30.741 0 55.75 27.072 55.75 60.35 0 49.829-23.737 78.88-94.06 115.123-2.533 1.303-7.608 4.105-11.436 6.236-3.826-2.131-8.896-4.932-11.424-6.231-70.336-36.248-94.075-65.298-94.075-115.128zm91.026 411.65v-275.445c4.537 2.499 9.493 5.285 9.569 5.328 1.522.856 3.212 1.284 4.902 1.284 1.689 0 3.379-.428 4.9-1.283.076-.043 5.031-2.827 9.571-5.326v275.442zm106.026-119.98h-17.944c-5.523 0-10 4.478-10 10v43.555c0 5.522 4.477 10 10 10h17.944v27.705h-57.082v-118.966h57.082z" fill="#FFC400"/><path d="m295.092 108.509c0-21.556-17.537-39.093-39.092-39.093s-39.092 17.537-39.092 39.093 17.537 39.092 39.092 39.092 39.092-17.537 39.092-39.092zm-58.184 0c0-10.527 8.565-19.093 19.092-19.093s19.092 8.565 19.092 19.093-8.565 19.092-19.092 19.092-19.092-8.565-19.092-19.092z" fill="#FFC400"/></g></svg>
